<svg style="position: absolute; width: 0; height: 0; overflow: hidden;" aria-hidden="true" version="1.1" xmlns="http://www.w3.org/2000/svg" xmlns:xlink="http://www.w3.org/1999/xlink">
    <defs>
        <symbol id="Vector" viewBox="0 0 25 22" fill="none">
            <path stroke-width="2" stroke="currentColor" stroke-linejoin="round" d="M21.8989 2.7461c-0.5533-0.5535-1.2103-0.9927-1.9334-1.2923C19.2425 1.1542 18.4674 1 17.6847 1s-1.5577 0.1542-2.2808 0.4538c-0.723 0.2996-1.38 0.7388-1.9333 1.2923l-1.1484 1.1484-1.1483-1.1484c-1.1177-1.1176-2.6335-1.7455-4.2142-1.7455-1.5806 0-3.0965 0.6279-4.2141 1.7455C1.6279 3.8638 1 5.3797 1 6.9603c0 1.5806 0.6279 3.0965 1.7456 4.2142l1.1483 1.1483 8.4283 8.4283 8.4284-8.4283 1.1483-1.1483c0.5536-0.5533 0.9927-1.2103 1.2923-1.9334 0.2996-0.7231 0.4538-1.4981 0.4538-2.2808 0-0.7827-0.1542-1.5577-0.4538-2.2808-0.2996-0.7231-0.7387-1.38-1.2923-1.9334z" />
        </symbol>
        <symbol id="Vector5" viewBox="0 0 1 16" fill="none">
            <path stroke="currentColor" stroke-opacity="0.2" d="M0.5 0v16" />
        </symbol>
        <symbol id="book-open-01" viewBox="0 0 16 16" stroke-width="1.5" stroke="currentColor" stroke-linecap="round" stroke-linejoin="round" fill="none">
            <path d="M14.6667 4.1333c0-0.7467 0-1.1201-0.1454-1.4053-0.1278-0.2509-0.3318-0.4548-0.5826-0.5827C13.6534 2 13.2801 2 12.5333 2h-0.2666c-1.4935 0-2.2402 0-2.8107 0.2906C8.9543 2.5463 8.5463 2.9543 8.2907 3.456 8 4.0265 8 4.7732 8 6.2667V14l0.0667-0.1001c0.4631-0.6946 0.6946-1.0419 1.0006-1.2934 0.2708-0.2226 0.5829-0.3896 0.9183-0.4914C10.3645 12 10.7819 12 11.6168 12h0.9165c0.7468 0 1.1201 0 1.4054-0.1453 0.2508-0.1279 0.4548-0.3318 0.5826-0.5827 0.1454-0.2852 0.1454-0.6586 0.1454-1.4053z" />
            <path d="M1.3333 4.1333c-1e-4-0.7467-1e-4-1.1201 0.1453-1.4053 0.1278-0.2509 0.3318-0.4548 0.5827-0.5827C2.3465 2 2.7199 2 3.4666 2h0.2666c1.4935 0 2.2403 0 2.8107 0.2906 0.5018 0.2557 0.9097 0.6637 1.1654 1.1654 0.2906 0.5705 0.2906 1.3172 0.2906 2.8107l0 7.7333-0.0667-0.1001c-0.4631-0.6946-0.6946-1.0419-1.0006-1.2934-0.2708-0.2226-0.5828-0.3896-0.9183-0.4914C5.6354 12 5.218 12 4.3831 12H3.4666c-0.7467 0-1.1201 0-1.4053-0.1453-0.2509-0.1279-0.4549-0.3318-0.5827-0.5827-0.1454-0.2852-0.1454-0.6586-0.1454-1.4053z" />
        </symbol>
    </defs>
</svg>