<svg aria-hidden="true" style="position: absolute; width: 0; height: 0; overflow: hidden;" version="1.1" xmlns="http://www.w3.org/2000/svg" xmlns:xlink="http://www.w3.org/1999/xlink">
    <defs>
        <symbol id="icon-untitled" viewBox="0 0 27 32">
            <title>untitled</title>
            <path fill="currentColor" d="M19.734 0.638c0 1.594-0.571 3.083-1.708 4.46-1.373 1.638-3.034 2.584-4.834 2.435-0.023-0.191-0.036-0.393-0.036-0.604 0-1.53 0.653-3.168 1.812-4.507 0.579-0.678 1.315-1.242 2.208-1.692 0.891-0.443 1.733-0.688 2.526-0.73 0.010 0.095 0.018 0.19 0.023 0.284 0.007 0.118 0.010 0.236 0.010 0.354z"></path>
            <path fill="currentColor" d="M25.762 24.842c-0.472 1.114-1.032 2.139-1.68 3.081-0.883 1.285-1.606 2.174-2.163 2.668-0.864 0.811-1.789 1.226-2.781 1.25-0.712 0-1.57-0.207-2.568-0.626-1.002-0.417-1.923-0.624-2.765-0.624-0.883 0-1.83 0.207-2.843 0.624-1.015 0.419-1.832 0.638-2.457 0.659-0.95 0.041-1.898-0.386-2.843-1.283-0.604-0.537-1.358-1.458-2.263-2.763-0.97-1.393-1.768-3.008-2.393-4.85-0.669-1.989-1.005-3.916-1.005-5.781 0-2.136 0.452-3.979 1.358-5.523 0.712-1.24 1.659-2.219 2.845-2.937s2.467-1.084 3.846-1.108c0.755 0 1.745 0.238 2.975 0.706 1.227 0.47 2.014 0.708 2.36 0.708 0.258 0 1.133-0.278 2.617-0.834 1.403-0.515 2.587-0.728 3.557-0.644 2.628 0.216 4.603 1.274 5.916 3.178-2.351 1.453-3.513 3.489-3.49 6.1 0.021 2.034 0.744 3.727 2.166 5.070 0.644 0.624 1.363 1.106 2.163 1.448-0.174 0.514-0.357 1.006-0.552 1.478z"></path>
        </symbol>
    </defs>
</svg>