<svg style="position: absolute; width: 0; height: 0; overflow: hidden;" aria-hidden="true" version="1.1" xmlns="http://www.w3.org/2000/svg" xmlns:xlink="http://www.w3.org/1999/xlink">
    <defs>
        <symbol id="Vector2" viewBox="0 0 25 22" fill="none">
            <path fill="currentColor" stroke-width="2" stroke="currentColor" stroke-linejoin="round" d="M21.8989 2.7461c-0.5533-0.5535-1.2103-0.9927-1.9334-1.2923C19.2425 1.1542 18.4674 1 17.6847 1s-1.5577 0.1542-2.2808 0.4538c-0.723 0.2996-1.38 0.7388-1.9333 1.2923l-1.1484 1.1484-1.1483-1.1484c-1.1177-1.1176-2.6335-1.7455-4.2142-1.7455-1.5806 0-3.0965 0.6279-4.2141 1.7455C1.6279 3.8638 1 5.3797 1 6.9603c0 1.5806 0.6279 3.0965 1.7456 4.2142l1.1483 1.1483 8.4283 8.4283 8.4284-8.4283 1.1483-1.1483c0.5536-0.5533 0.9927-1.2103 1.2923-1.9334 0.2996-0.7231 0.4538-1.4981 0.4538-2.2808 0-0.7827-0.1542-1.5577-0.4538-2.2808-0.2996-0.7231-0.7387-1.38-1.2923-1.9334z" />
        </symbol>
    </defs>
</svg>