<svg style="position: absolute; width: 0; height: 0; overflow: hidden;" aria-hidden="true" version="1.1" xmlns="http://www.w3.org/2000/svg" xmlns:xlink="http://www.w3.org/1999/xlink">
    <style>
        .default-palette, .palette0 {color: currentColor;
            --color0: #e7c885;
            --color1: #fbe9ba;
            --color2: #d08f38;
            --color3: #eeb055;
        }
    </style>
    <defs>
        <symbol id="Yellow" viewBox="0 0 360 176" fill="none">
            <g clip-path="url(#clip0_22955_11)">
                <path fill="url(#paint0_linear_22955_11)" d="M6.4178 0C2.8733 0 0 2.879 0 6.4305V240.821c0 3.551 2.8733 6.43 6.4178 6.43H353.302c3.545 0 6.418-2.879 6.418-6.43V6.4305C359.72 2.879 356.847 0 353.302 0z" />
                <path fill="url(#paint1_linear_22955_11)" d="M191.451 66.3851c0 2.79-0.999 5.3949-2.99 7.8058-2.403 2.8663-5.309 4.5225-8.46 4.2612-0.04-0.3346-0.064-0.6869-0.064-1.0572 0-2.6781 1.143-5.5445 3.172-7.888 1.013-1.1866 2.301-2.1731 3.864-2.9602 1.559-0.7754 3.033-1.2042 4.42-1.2775 0.018 0.1659 0.032 0.3317 0.041 0.4972 0.011 0.2069 0.017 0.4133 0.017 0.6187z" />
                <path fill="url(#paint2_linear_22955_11)" d="M201.999 108.742c-0.827 1.949-1.805 3.743-2.939 5.392-1.545 2.249-2.811 3.805-3.786 4.669-1.512 1.419-3.132 2.146-4.866 2.187-1.245 0-2.747-0.362-4.495-1.095-1.754-0.73-3.365-1.092-4.839-1.092-1.545 0-3.203 0.362-4.976 1.092-1.776 0.733-3.206 1.116-4.3 1.154-1.663 0.072-3.321-0.675-4.976-2.246-1.056-0.94-2.377-2.551-3.96-4.834-1.698-2.438-3.094-5.265-4.187-8.488-1.172-3.481-1.759-6.8522-1.759-10.1159 0-3.7384 0.792-6.9628 2.378-9.6647 1.246-2.1705 2.904-3.8824 4.979-5.1392 2.075-1.2569 4.317-1.8973 6.731-1.9383 1.321 0 3.054 0.417 5.206 1.2364 2.147 0.8223 3.526 1.2392 4.13 1.2392 0.452 0 1.983-0.4874 4.579-1.4596 2.455-0.9013 4.527-1.2746 6.225-1.1276 4.599 0.3787 8.054 2.2288 10.352 5.5622-4.113 2.5432-6.148 6.1053-6.107 10.6749 0.037 3.5595 1.302 6.5216 3.789 8.8736 1.127 1.091 2.386 1.935 3.786 2.534-0.303 0.899-0.624 1.76-0.965 2.586z" />
            </g>
            <defs>
                <linearGradient id="paint0_linear_22955_11" gradientUnits="userSpaceOnUse" x1="179.86" x2="179.86" y1="0" y2="247.251" />
                <linearGradient id="paint1_linear_22955_11" gradientUnits="userSpaceOnUse" x1="179.94" x2="179.94" y1="65.2692" y2="121.053" />
                <linearGradient id="paint2_linear_22955_11" gradientUnits="userSpaceOnUse" x1="179.94" x2="179.94" y1="65.2692" y2="121.053" />
                <clipPath id="clip0_22955_11">
                    <polygon fill="#fff" points="0 0 359.72 0 359.72 177.375 1.375 176" />
                </clipPath>
            </defs>
        </symbol>
    </defs>
</svg>